<svg width="170" height="170" viewBox="0 0 170 170" fill="none" xmlns="http://www.w3.org/2000/svg">
<path d="M76.5231 103.136H93.4732H76.5231ZM85 52.3548V55.9821V52.3548ZM108.084 61.9162L105.519 64.4807L108.084 61.9162ZM117.645 85H114.018H117.645ZM55.9821 85H52.3548H55.9821ZM64.4807 64.4807L61.9162 61.9162L64.4807 64.4807ZM72.1741 97.8259C69.6382 95.2893 67.9113 92.0578 67.2119 88.5398C66.5125 85.0219 66.872 81.3755 68.2448 78.0619C69.6176 74.7482 71.9422 71.916 74.9246 69.9233C77.9069 67.9307 81.4132 66.8672 85 66.8672C88.5868 66.8672 92.0931 67.9307 95.0754 69.9233C98.0578 71.916 100.382 74.7482 101.755 78.0619C103.128 81.3755 103.487 85.0219 102.788 88.5398C102.089 92.0578 100.362 95.2893 97.8259 97.8259L95.8382 99.81C94.7018 100.947 93.8004 102.296 93.1855 103.781C92.5706 105.266 92.2543 106.857 92.2545 108.465V110.391C92.2545 112.315 91.4902 114.16 90.1297 115.52C88.7692 116.881 86.924 117.645 85 117.645C83.076 117.645 81.2308 116.881 79.8703 115.52C78.5098 114.16 77.7455 112.315 77.7455 110.391V108.465C77.7455 105.218 76.4542 102.102 74.1618 99.81L72.1741 97.8259Z" stroke="#EC7979" stroke-width="6.83333" stroke-linecap="round" stroke-linejoin="round"/>
<circle cx="85" cy="85" r="45.5" stroke="#EC7979"/>
</svg>
