<svg width="40" height="40" viewBox="0 0 40 40" fill="none" xmlns="http://www.w3.org/2000/svg">
<g clip-path="url(#clip0_839_456)">
<path d="M18.7058 19.5189C18.9936 19.3741 19.2112 19.2129 19.3603 19.0386C19.6255 18.7248 19.7564 18.3087 19.7564 17.7929C19.7564 17.291 19.6255 16.8619 19.3637 16.5021C18.9268 15.9161 18.1874 15.6162 17.1419 15.6006H13V24.0552H16.8619C17.2971 24.0552 17.7002 24.0179 18.073 23.9417C18.4457 23.8645 18.7682 23.7232 19.0413 23.5169C19.284 23.3374 19.4868 23.1147 19.6481 22.852C19.9029 22.455 20.0304 22.0051 20.0304 21.504C20.0304 21.0186 19.9185 20.6051 19.6966 20.2652C19.4721 19.9254 19.1427 19.6766 18.7058 19.5189ZM14.7086 17.0691H16.5741C16.9842 17.0691 17.3222 17.1133 17.5875 17.2008C17.8944 17.3283 18.0478 17.5875 18.0478 17.9828C18.0478 18.3373 17.9308 18.5852 17.6993 18.7248C17.4661 18.8644 17.1636 18.9346 16.7926 18.9346H14.7086V17.0691ZM17.6586 22.4394C17.4523 22.5391 17.1619 22.5885 16.79 22.5885H14.7086V20.3337H16.8186C17.1861 20.3363 17.4722 20.3849 17.6768 20.4759C18.0409 20.6406 18.2221 20.9423 18.2221 21.3835C18.2221 21.9036 18.0348 22.2539 17.6586 22.4394Z" fill="white"/>
<path d="M25.536 15.9951H21.863V17.0475H25.536V15.9951Z" fill="white"/>
<path d="M26.812 20.1482C26.7357 19.6584 26.5676 19.2275 26.3058 18.8557C26.0188 18.4344 25.6547 18.1258 25.2118 17.9307C24.7705 17.7348 24.2738 17.6368 23.7207 17.6377C22.7923 17.6377 22.0381 17.9281 21.4547 18.5046C20.8731 19.0828 20.5818 19.9141 20.5818 20.9977C20.5818 22.1533 20.9034 22.9881 21.5501 23.5004C22.1942 24.0136 22.938 24.2693 23.7823 24.2693C24.8043 24.2693 25.5993 23.965 26.1671 23.3582C26.5303 22.975 26.7357 22.598 26.7808 22.2278H25.0887C24.9907 22.4107 24.8772 22.5537 24.7471 22.6578C24.5113 22.8485 24.2045 22.9438 23.8282 22.9438C23.4702 22.9438 23.1668 22.865 22.9137 22.7081C22.4958 22.4567 22.2774 22.0163 22.2497 21.3895H26.8675C26.8744 20.8495 26.8571 20.4342 26.812 20.1482ZM22.2913 20.3103C22.3519 19.9037 22.4993 19.5812 22.7334 19.3428C22.9674 19.1053 23.2986 18.9857 23.7225 18.9848C24.1134 18.9848 24.4402 19.0967 24.7064 19.3212C24.969 19.5474 25.1173 19.876 25.1476 20.3103H22.2913Z" fill="white"/>
</g>
<circle cx="19.6475" cy="19.6475" r="19.3586" stroke="white" stroke-opacity="0.3" stroke-width="0.577869"/>
<defs>
<clipPath id="clip0_839_456">
<rect width="13.8689" height="13.8689" fill="white" transform="translate(13 13)"/>
</clipPath>
</defs>
</svg>
