<svg width="19" height="19" viewBox="0 0 19 19" fill="none" xmlns="http://www.w3.org/2000/svg">
<g clip-path="url(#clip0_839_434)">
<path d="M18.331 10.9988C18.8978 6.22745 18.0586 3.21516 16.545 1.8527L16.5458 1.85191C14.1027 -0.474797 5.85194 -0.819172 2.92911 1.95641C1.61652 3.31412 1.15419 5.30674 1.10352 7.77358C1.05286 10.2412 0.992691 14.8637 5.30015 16.1177H5.30411L5.30015 18.0328C5.30015 18.0328 5.27086 18.8086 5.76644 18.9646C6.33327 19.1482 6.58977 18.788 8.35282 16.6822C11.301 16.9379 13.5651 16.3521 13.8224 16.2666C14.4178 16.0671 17.7863 15.6214 18.331 10.9988ZM8.64336 15.3348C8.64336 15.3348 6.7774 17.6615 6.19711 18.2655C6.00711 18.4619 5.7989 18.4437 5.80207 18.0542C5.80207 17.7985 5.81632 14.8748 5.81632 14.8748C2.16436 13.8282 2.37969 9.89208 2.41927 7.83295C2.45886 5.77304 2.83569 4.08599 3.94719 2.94995C6.5114 0.545661 13.7449 1.0832 15.5879 2.81537C17.8409 4.81274 17.039 10.4557 17.0437 10.6481C16.5806 14.5067 13.8509 14.7513 13.349 14.9184C13.1345 14.9896 11.1434 15.5018 8.64336 15.3348Z" fill="white"/>
<path d="M9.67586 3.40186C9.37107 3.40186 9.37107 3.87686 9.67586 3.88081C12.0406 3.89902 13.9881 5.54727 14.0094 8.57065C14.0094 8.88969 14.4765 8.88573 14.4726 8.56669H14.4718C14.4464 5.30898 12.32 3.42006 9.67586 3.40186Z" fill="white"/>
<path d="M12.7863 8.06949C12.7792 8.38457 13.2455 8.39961 13.2495 8.08057C13.2882 6.28428 12.1807 4.80465 10.0994 4.6487C9.79461 4.62653 9.76295 5.10549 10.0669 5.12765C11.872 5.26461 12.8227 6.49644 12.7863 8.06949Z" fill="white"/>
<path d="M12.2873 10.1129C11.8963 9.8865 11.4981 10.0274 11.3334 10.2499L10.989 10.6956C10.8141 10.922 10.4871 10.8919 10.4871 10.8919C8.10101 10.261 7.46293 7.76404 7.46293 7.76404C7.46293 7.76404 7.43364 7.426 7.65214 7.24471L8.0828 6.88846C8.29814 6.71746 8.4343 6.30579 8.21501 5.90125C7.62918 4.84279 7.23572 4.47783 7.03543 4.19758C6.82484 3.93396 6.50818 3.87458 6.17884 4.05271H6.17172C5.48693 4.45329 4.73722 5.203 4.97709 5.97487C5.38638 6.78871 6.13847 9.383 8.53564 11.3432C9.66218 12.2702 11.445 13.2202 12.2018 13.4395L12.209 13.4506C12.9547 13.6992 13.6799 12.9202 14.067 12.2148V12.2092C14.2388 11.868 14.1818 11.545 13.9308 11.3337C13.4859 10.8998 12.8146 10.4209 12.2873 10.1129Z" fill="white"/>
<path d="M10.4256 6.4155C11.1864 6.45983 11.5553 6.85725 11.5949 7.67346C11.6091 7.9925 12.0722 7.97034 12.058 7.65129C12.0073 6.58571 11.4516 5.99196 10.4509 5.93654C10.1461 5.91833 10.1176 6.39729 10.4256 6.4155Z" fill="white"/>
</g>
<defs>
<clipPath id="clip0_839_434">
<rect width="19" height="19" fill="white"/>
</clipPath>
</defs>
</svg>
