<svg width="8" height="15" viewBox="0 0 8 15" fill="none" xmlns="http://www.w3.org/2000/svg">
<path d="M5.99163 8.15998H5.15161C3.83165 8.15998 2.55165 7.20011 2.55165 4.79989C2.55165 2.30007 3.75176 1.28001 4.97157 1.28001H5.99163V8.15998ZM7.31159 -9.53674e-07H5.03176C2.79134 -9.53674e-07 0.891851 1.70029 0.891851 5.00018C0.891851 6.98012 1.81177 8.44017 3.45187 9.1598L0.391668 14.6799C0.291522 14.8599 0.391668 15 0.551464 15H1.97157C2.09141 15 2.17186 14.9601 2.21181 14.8599L4.99181 9.43999H5.99163V14.8599C5.99163 14.9201 6.05183 15 6.13173 15H7.37179C7.49163 15 7.53158 14.9398 7.53158 14.8402V0.199745C7.53158 0.0601969 7.45168 -9.53674e-07 7.31159 -9.53674e-07Z" fill="#ED1E24"/>
</svg>
