<svg width="65" height="65" viewBox="0 0 65 65" fill="none" xmlns="http://www.w3.org/2000/svg">
<path d="M9.92432 14.8824C9.76117 15.3524 9.75337 15.8418 9.72477 16.3163C9.60452 18.3138 9.80017 20.2703 10.5451 22.1514C11.3992 24.3074 12.809 26.0163 14.6732 27.3702C16.581 28.756 18.737 29.5854 20.973 30.2673C23.1837 30.9413 25.2156 31.9599 26.8906 33.6037C28.5683 35.2502 29.5069 37.2652 29.8923 39.559C30.0444 40.4645 30.1055 41.3784 30.1075 42.2968C30.1075 42.4067 30.1094 42.5185 30.0919 42.6257C30.0327 42.9858 29.7591 43.2159 29.4373 43.1873C29.1247 43.1594 28.9102 42.9202 28.9089 42.5497C28.9069 41.7788 28.8621 41.0118 28.7743 40.2461C28.3752 36.7666 26.5767 34.2518 23.5171 32.6034C22.2828 31.9384 20.9607 31.5062 19.6288 31.0869C16.7929 30.1951 14.1961 28.8776 12.1018 26.7053C10.1986 24.7306 9.07022 22.3704 8.66787 19.669C8.32792 17.3901 8.48327 15.1346 9.11702 12.9155C9.13067 12.8687 9.14757 12.8226 9.15992 12.7751C9.24052 12.4547 9.43682 12.2447 9.77157 12.2415C10.0797 12.2382 10.2532 12.4521 10.3488 12.7251C10.6133 13.4771 10.9624 14.1908 11.3309 14.8954C11.4954 15.2094 11.6709 15.5175 11.8431 15.8275C12.2377 16.5399 12.9319 16.8233 13.6488 17.0508C14.9625 17.4675 16.3249 17.6098 17.6912 17.7164C19.777 17.8802 21.8681 17.8464 23.9578 17.8789C25.5776 17.9036 27.033 18.5224 28.4142 19.3174C29.659 20.0343 30.7939 20.9021 31.8339 21.894C31.9489 22.0038 32.0828 22.0942 32.1888 22.2112C32.3532 22.3932 32.4754 22.3568 32.6412 22.1982C33.7039 21.1816 34.8388 20.2566 36.0985 19.4896C37.8139 18.4451 39.6326 17.7951 41.6814 17.8614C43.5508 17.9218 45.4221 17.8568 47.287 17.708C48.676 17.5968 50.0592 17.4317 51.3911 16.9767C52.1919 16.7037 52.7918 16.2422 53.1831 15.4635C53.6446 14.5457 54.1367 13.6442 54.4708 12.6692C54.565 12.3942 54.7581 12.2369 55.0441 12.2395C55.3535 12.2421 55.5296 12.4462 55.6232 12.7212C55.9274 13.6169 56.0964 14.5444 56.203 15.4798C56.4428 17.5799 56.3161 19.6547 55.6797 21.6821C54.6398 24.9951 52.5103 27.4222 49.5581 29.1714C47.9487 30.1249 46.2177 30.7879 44.4309 31.3248C42.5537 31.889 40.7915 32.6859 39.2783 33.9677C37.4044 35.555 36.4008 37.6045 36.0608 40.0069C35.9497 40.794 35.8938 41.5864 35.912 42.3826C35.9139 42.4678 35.9152 42.5549 35.9048 42.6394C35.8652 42.9644 35.6279 43.188 35.3237 43.1925C35 43.1977 34.7316 42.9728 34.7231 42.6251C34.6471 39.4472 35.2938 36.4995 37.4882 34.0529C38.9546 32.4175 40.8039 31.3755 42.8306 30.6105C44.2027 30.0924 45.6366 29.7557 46.9815 29.1545C49.5678 27.9981 51.8136 26.4264 53.3424 23.9792C54.3453 22.3743 54.8848 20.6141 55.0571 18.7298C55.1637 17.5656 55.1168 16.4112 54.9719 15.2568C54.9569 15.1372 54.9687 15.0105 54.8478 14.872C54.6651 15.1996 54.4649 15.5006 54.3219 15.8269C53.757 17.1178 52.7275 17.825 51.421 18.2117C50.041 18.6206 48.6227 18.7896 47.1953 18.9007C45.1095 19.0632 43.0184 19.0327 40.9287 19.0613C39.433 19.0821 38.0986 19.671 36.8356 20.4282C35.4108 21.2823 34.1453 22.3353 32.9922 23.5274C32.5385 23.9961 32.2843 23.998 31.8293 23.5333C30.452 22.1273 28.9394 20.8975 27.1812 19.9921C26.0586 19.4142 24.8795 19.0411 23.5997 19.0496C21.9123 19.0613 20.2249 19.0697 18.5401 18.9657C16.8319 18.8598 15.1269 18.7187 13.4714 18.2332C12.2013 17.8607 11.1359 17.2393 10.5678 15.9673C10.4437 15.6891 10.2831 15.4265 10.1343 15.16C10.0836 15.067 10.0686 14.9461 9.92432 14.8824Z" fill="white"></path>
<path d="M41.453 44.0942C41.4536 42.3086 41.4523 40.5237 41.4543 38.7382C41.4549 38.133 41.6376 37.9556 42.2466 37.9575C45.6442 37.9679 48.7492 40.6661 49.2659 44.0584C49.8867 48.1326 47.3056 51.7512 43.2457 52.498C39.2189 53.2384 35.1792 50.2087 34.7736 46.143C34.7508 45.9122 34.7183 45.6815 34.7164 45.4501C34.7125 44.9756 34.9478 44.6766 35.3079 44.672C35.6816 44.6668 35.9007 44.9405 35.9137 45.4286C35.9865 48.132 37.8786 50.5142 40.4884 51.187C44.0744 52.1119 47.6364 49.7115 48.1232 46.0403C48.549 42.8293 46.2298 39.7106 43.0786 39.2244C42.6919 39.1646 42.6522 39.2959 42.6529 39.6137C42.6607 42.8176 42.6581 46.0214 42.6587 49.2246C42.6587 49.3592 42.6646 49.4944 42.6535 49.6283C42.6197 50.0306 42.3864 50.2601 42.0282 50.2516C41.6597 50.2432 41.4562 50.0235 41.4549 49.5958C41.4504 47.7628 41.4523 45.9285 41.453 44.0942Z" fill="white"></path>
<path d="M16.0283 48.2656C15.7832 48.6796 15.5759 49.1054 15.299 49.4915C13.505 51.9966 10.4318 53.1276 7.46907 52.3645C4.54472 51.6111 2.38347 49.108 2.03962 46.0738C2.01232 45.8313 1.98372 45.5869 1.98827 45.3438C1.99607 44.9532 2.24957 44.6776 2.57457 44.6711C2.92947 44.6639 3.16022 44.9239 3.18297 45.349C3.30647 47.7059 4.36922 49.4941 6.43167 50.6615C9.95272 52.6537 14.6633 50.3969 15.3328 46.4059C15.3874 46.079 15.4095 45.7514 15.4257 45.4218C15.4491 44.948 15.6604 44.6912 16.0192 44.6769C16.3806 44.6626 16.6178 44.8869 16.6432 45.3815C16.69 46.285 16.8668 47.1489 17.2704 47.962C18.5132 50.4665 21.0911 51.5975 23.3843 51.3602C26.1189 51.0775 28.3568 49.0027 28.8151 46.2298C28.8625 45.9412 28.884 45.6474 28.9022 45.3549C28.9288 44.9259 29.1485 44.6685 29.5047 44.6704C29.8421 44.6724 30.1131 44.9655 30.1014 45.3724C30.0787 46.1576 29.9526 46.9279 29.69 47.6721C28.5824 50.8071 25.5716 52.8364 22.2592 52.5751C19.5779 52.3632 17.5759 51.0177 16.272 48.6536C16.2025 48.5288 16.1713 48.3787 16.0283 48.2656Z" fill="white"></path>
<path d="M55.3216 52.5998C53.2929 52.5276 51.2981 51.5702 49.8122 49.6033C49.6757 49.4226 49.5704 49.2347 49.6062 48.9975C49.6426 48.7583 49.7726 48.5971 50.0059 48.5217C50.2913 48.4294 50.5155 48.534 50.6819 48.757C51.0336 49.2295 51.4125 49.6748 51.8838 50.0336C53.7421 51.4486 55.7902 51.8159 57.9599 50.9468C60.2096 50.0459 61.4849 48.3234 61.7988 45.9087C61.8255 45.7033 61.8411 45.4959 61.8567 45.2892C61.8846 44.9174 62.116 44.6737 62.4488 44.6704C62.7615 44.6672 63.0364 44.9278 63.0488 45.2918C63.0644 45.7683 62.9974 46.2428 62.9058 46.7101C62.235 50.1077 59.2073 52.5933 55.3216 52.5998Z" fill="white"></path>
</svg>
