<svg width="19" height="19" viewBox="0 0 19 19" fill="none" xmlns="http://www.w3.org/2000/svg">
<path fill-rule="evenodd" clip-rule="evenodd" d="M15.8009 3.17307C14.1345 1.50467 11.9182 0.585451 9.5572 0.584473C4.69203 0.584473 0.732489 4.5439 0.730532 9.41038C0.729879 10.966 1.13627 12.4846 1.90872 13.8232L0.656494 18.397L5.33565 17.1695C6.62494 17.8728 8.07645 18.2435 9.55361 18.2439H9.55731C14.4219 18.2439 18.3819 14.2841 18.3838 9.41745C18.3847 7.0589 17.4675 4.84136 15.8009 3.17307ZM9.5572 16.7533H9.55416C8.23779 16.7527 6.94675 16.3989 5.82021 15.7306L5.55243 15.5716L2.77575 16.3L3.51689 13.5928L3.34239 13.3152C2.608 12.1472 2.2202 10.7971 2.22085 9.41092C2.22237 5.36604 5.51351 2.07523 9.56014 2.07523C11.5197 2.07588 13.3617 2.83995 14.7468 4.22666C16.1319 5.61337 16.8942 7.45659 16.8936 9.4169C16.8918 13.4621 13.6009 16.7533 9.5572 16.7533ZM13.5813 11.2587C13.3608 11.1482 12.2765 10.6149 12.0743 10.5412C11.8723 10.4676 11.7251 10.4309 11.5782 10.6516C11.4311 10.8723 11.0085 11.3692 10.8798 11.5163C10.751 11.6635 10.6225 11.6819 10.4019 11.5715C10.1814 11.4611 9.47077 11.2282 8.62831 10.4768C7.97273 9.892 7.53014 9.16978 7.40141 8.94908C7.27291 8.72817 7.40033 8.62032 7.49817 8.49899C7.73692 8.20251 7.97599 7.89168 8.04949 7.74459C8.12309 7.59738 8.08623 7.46855 8.031 7.3582C7.97599 7.24785 7.53492 6.16229 7.35119 5.72057C7.17202 5.29069 6.99035 5.34875 6.85488 5.34201C6.72638 5.3356 6.57928 5.33429 6.43219 5.33429C6.2852 5.33429 6.04623 5.38941 5.84402 5.61033C5.64191 5.83114 5.07222 6.36462 5.07222 7.45018C5.07222 8.53574 5.8625 9.58444 5.97274 9.73164C6.08298 9.87885 7.52796 12.1065 9.74028 13.0617C10.2665 13.2891 10.6772 13.4247 10.9976 13.5264C11.526 13.6942 12.0066 13.6705 12.3867 13.6138C12.8105 13.5504 13.6915 13.0802 13.8754 12.5651C14.0591 12.0499 14.0591 11.6083 14.0039 11.5163C13.9489 11.4243 13.8018 11.3692 13.5813 11.2587Z" fill="white"></path>
</svg>
