<svg width="16" height="17" viewBox="0 0 16 17" fill="none" xmlns="http://www.w3.org/2000/svg">
<g clip-path="url('#clip0_267_221')">
<path d="M8.59402 1.91893L13.9273 4.58559C14.1495 4.69598 14.3364 4.86614 14.4672 5.07695C14.5979 5.28777 14.6672 5.53087 14.6673 5.77893V12.1323C14.6672 12.3803 14.5979 12.6234 14.4672 12.8342C14.3364 13.045 14.1495 13.2152 13.9273 13.3256L8.59402 15.9923C8.40878 16.085 8.20449 16.1332 7.99735 16.1332C7.79021 16.1332 7.58592 16.085 7.40068 15.9923L2.06735 13.3256C1.84544 13.2138 1.65918 13.0422 1.52961 12.8301C1.40003 12.6181 1.33229 12.3741 1.33402 12.1256V5.77893C1.33415 5.53087 1.40348 5.28777 1.5342 5.07695C1.66493 4.86614 1.85187 4.69598 2.07402 4.58559L7.40735 1.91893C7.59172 1.82731 7.7948 1.77963 8.00068 1.77963C8.20656 1.77963 8.40965 1.82731 8.59402 1.91893V1.91893Z" stroke="#010624" stroke-linecap="round" stroke-linejoin="round"></path>
<path d="M1.54688 5.05892L8.00021 8.28559L14.4535 5.05892" stroke="#010624" stroke-linecap="round" stroke-linejoin="round"></path>
<path d="M8 16.1256V8.28561" stroke="#010624" stroke-linecap="round" stroke-linejoin="round"></path>
</g>
<defs>
<clipPath id="clip0_267_221">
<rect width="16" height="16" fill="white" transform="translate(0 0.952271)"></rect>
</clipPath>
</defs>
</svg>
