<svg width="15" height="15" viewBox="0 0 15 15" fill="none" xmlns="http://www.w3.org/2000/svg">
<g clip-path="url('#clip0_150_2955')">
<path d="M15 7.67223C15 7.1624 14.9578 6.64982 14.8678 6.14825H7.65039V9.03637H11.7835C11.612 9.96784 11.0609 10.7918 10.254 11.3154V13.1894H12.7197C14.1677 11.8831 15 9.95406 15 7.67223Z" fill="#4285F4"></path>
<path d="M7.65036 15C9.71409 15 11.4545 14.3359 12.7225 13.1894L10.2567 11.3155C9.5707 11.7729 8.68504 12.032 7.65317 12.032C5.65692 12.032 3.96433 10.712 3.35702 8.93719H0.8125V10.869C2.11147 13.4016 4.7572 15 7.65036 15Z" fill="#34A853"></path>
<path d="M3.35372 8.93715C3.03319 8.00567 3.03319 6.99704 3.35372 6.06557V4.13373H0.812011C-0.273275 6.25296 -0.273275 8.74975 0.812011 10.869L3.35372 8.93715Z" fill="#FBBC04"></path>
<path d="M7.65036 2.96805C8.74127 2.95151 9.79563 3.35387 10.5857 4.09243L12.7703 1.95115C11.387 0.677952 9.55102 -0.0220295 7.65036 1.71351e-05C4.75721 1.71351e-05 2.11147 1.5984 0.8125 4.13377L3.35421 6.06561C3.9587 4.28809 5.65411 2.96805 7.65036 2.96805Z" fill="#EA4335"></path>
</g>
<defs>
<clipPath id="clip0_150_2955">
<rect width="15" height="15" fill="white"></rect>
</clipPath>
</defs>
</svg>
