<svg width="16" height="17" viewBox="0 0 16 17" fill="none" xmlns="http://www.w3.org/2000/svg">
<path d="M13.8941 4.02562C13.5536 3.68496 13.1493 3.41472 12.7043 3.23034C12.2593 3.04597 11.7824 2.95107 11.3007 2.95107C10.8191 2.95107 10.3421 3.04597 9.89716 3.23034C9.45219 3.41472 9.0479 3.68496 8.7074 4.02562L8.00073 4.73229L7.29406 4.02562C6.60627 3.33782 5.67342 2.95143 4.70073 2.95143C3.72804 2.95143 2.79519 3.33782 2.1074 4.02562C1.4196 4.71341 1.0332 5.64626 1.0332 6.61895C1.0332 7.59164 1.4196 8.52449 2.1074 9.21229L2.81406 9.91895L8.00073 15.1056L13.1874 9.91895L13.8941 9.21229C14.2347 8.87178 14.505 8.4675 14.6893 8.02252C14.8737 7.57755 14.9686 7.10061 14.9686 6.61895C14.9686 6.13729 14.8737 5.66036 14.6893 5.21538C14.505 4.77041 14.2347 4.36612 13.8941 4.02562V4.02562Z" stroke="#010624" stroke-linecap="round" stroke-linejoin="round"></path>
</svg>
