<svg width="16" height="13" viewBox="0 0 16 13" fill="none" xmlns="http://www.w3.org/2000/svg">
<path d="M14.9688 2.09375C15.0312 1.65625 15 1.375 14.8125 1.1875C14.625 1 14.375 0.96875 14.0625 1.0625L1.65625 5.84375C1.21875 6.03125 1 6.21875 1 6.40625C0.96875 6.625 1.125 6.78125 1.5 6.875L4.6875 7.875L12.0625 3.21875C12.1562 3.15625 12.25 3.125 12.3438 3.125C12.4375 3.125 12.5 3.125 12.5312 3.1875C12.5625 3.25 12.5312 3.28125 12.4688 3.34375L6.5 8.75L6.25 12.0312C6.40625 12.0312 6.53125 12 6.65625 11.9375C6.71875 11.9062 6.78125 11.8438 6.90625 11.7188L8.46875 10.2188L11.6875 12.5938C11.9688 12.7812 12.2188 12.8125 12.4062 12.7188C12.5938 12.625 12.75 12.4062 12.8438 12.0312L14.9688 2.09375Z" fill="#28A8E9"></path>
</svg>
